<svg xmlns="http://www.w3.org/2000/svg" xmlns:xlink="http://www.w3.org/1999/xlink" viewBox="0 0 1921 1080"><defs><style>.cls-1{fill:url(#Degradado_sin_nombre_31);}.cls-2{fill:#ff0b55;}.cls-3{fill:#fffb00;}.cls-4{fill:#fff;}.cls-5{fill:#ff00ce;}.cls-6{fill:#1bf900;}.cls-7{fill:#11fc28;}</style><radialGradient id="Degradado_sin_nombre_31" cx="960" cy="540" r="947.04" gradientUnits="userSpaceOnUse"><stop offset="0" stop-color="#440bf5"/><stop offset="0.25" stop-color="#400af3"/><stop offset="0.49" stop-color="#3408ec"/><stop offset="0.73" stop-color="#2105e0"/><stop offset="0.96" stop-color="#0501cf"/><stop offset="1" stop-color="#00c"/></radialGradient></defs><g id="Capa_2" data-name="Capa 2"><g id="fondos"><rect class="cls-1" width="1920" height="1080"/><rect class="cls-2" y="270" width="520" height="30"/><rect class="cls-3" x="43" y="270" width="469" height="30"/><rect class="cls-4" x="57" y="270" width="443" height="30"/><rect class="cls-5" x="54" y="471" width="228" height="19"/><rect class="cls-2" x="29" y="471" width="228" height="19"/><rect class="cls-4" y="471" width="228" height="19"/><rect class="cls-6" x="1160" y="910" width="660" height="98"/><rect class="cls-2" x="1180" y="910" width="660" height="98"/><rect class="cls-2" x="1600" y="1038" width="320" height="42"/><rect class="cls-3" x="1754" y="874" width="166" height="22"/><rect class="cls-2" x="500" y="790" width="166" height="22"/><rect class="cls-6" x="574" y="790" width="166" height="22"/><rect class="cls-4" x="520" y="790" width="201" height="22"/><rect class="cls-7" y="994" width="300" height="24"/><rect class="cls-5" x="37" y="994" width="252" height="24"/><rect class="cls-4" x="79" y="994" width="201" height="24"/><rect class="cls-3" y="1038" width="168" height="42"/><rect class="cls-2" x="24" y="1038" width="168" height="42"/><rect class="cls-4" x="37" y="1038" width="168" height="42"/><rect class="cls-3" x="1620" y="416" width="301" height="75"/><rect class="cls-2" x="1600" y="416" width="301" height="75"/><rect class="cls-3" x="1820" y="349" width="101" height="20"/><rect class="cls-5" x="1803" y="349" width="101" height="20"/><rect class="cls-7" x="1600" y="250" width="220" height="20"/><rect class="cls-7" x="1180" y="300" width="220" height="20"/><rect class="cls-5" x="1160" y="300" width="220" height="20"/><rect class="cls-7" x="1388" y="339" width="20" height="21"/><rect class="cls-3" x="1374" y="339" width="20" height="21"/><rect class="cls-4" x="1380" y="339" width="20" height="21"/><rect class="cls-3" x="644" y="830" width="114" height="11"/><rect class="cls-2" x="638" y="830" width="114" height="11"/><rect class="cls-7" x="616" y="830" width="114" height="11"/><rect class="cls-4" x="626" y="830" width="114" height="11"/><rect class="cls-4" x="1180" y="910" width="640" height="98"/><rect class="cls-4" x="1180" y="300" width="200" height="20"/><rect class="cls-4" x="1620" y="416" width="281" height="75"/><rect class="cls-4" x="1820" y="349" width="84" height="20"/><rect class="cls-5" x="1820" y="250" width="101" height="20"/><rect class="cls-4" x="1620" y="250" width="200" height="20"/><rect class="cls-4" x="1820" y="874" width="100" height="22"/><rect class="cls-5" x="1809" y="1038" width="111" height="42"/><rect class="cls-4" x="1620" y="1038" width="200" height="42"/></g></g></svg>