<svg xmlns="http://www.w3.org/2000/svg" xmlns:xlink="http://www.w3.org/1999/xlink" viewBox="0 0 322.74 147.14"><defs><style>.cls-1{fill:url(#Degradado_sin_nombre_52);}.cls-2{fill:url(#Degradado_sin_nombre_52-2);}.cls-3{fill:url(#Degradado_sin_nombre_52-3);}.cls-4{fill:url(#Degradado_sin_nombre_52-4);}.cls-5{fill:url(#Degradado_sin_nombre_52-5);}.cls-6{fill:url(#Degradado_sin_nombre_52-6);}.cls-7{fill:url(#Degradado_sin_nombre_52-7);}.cls-8{fill:url(#Degradado_sin_nombre_52-8);}</style><linearGradient id="Degradado_sin_nombre_52" x1="75.63" y1="30.94" x2="139.85" y2="30.94" gradientUnits="userSpaceOnUse"><stop offset="0" stop-color="#00d0ff"/><stop offset="0.5" stop-color="#036a9a"/><stop offset="0.99" stop-color="#050581"/></linearGradient><linearGradient id="Degradado_sin_nombre_52-2" x1="147.51" y1="30.94" x2="190.47" y2="30.94" xlink:href="#Degradado_sin_nombre_52"/><linearGradient id="Degradado_sin_nombre_52-3" x1="197.77" y1="30.94" x2="247.67" y2="30.94" xlink:href="#Degradado_sin_nombre_52"/><linearGradient id="Degradado_sin_nombre_52-4" x1="0" y1="115.12" x2="57.28" y2="115.12" xlink:href="#Degradado_sin_nombre_52"/><linearGradient id="Degradado_sin_nombre_52-5" x1="64.58" y1="115.12" x2="128.8" y2="115.12" xlink:href="#Degradado_sin_nombre_52"/><linearGradient id="Degradado_sin_nombre_52-6" x1="137.82" y1="115.12" x2="201.04" y2="115.12" xlink:href="#Degradado_sin_nombre_52"/><linearGradient id="Degradado_sin_nombre_52-7" x1="214.74" y1="115.12" x2="261.31" y2="115.12" xlink:href="#Degradado_sin_nombre_52"/><linearGradient id="Degradado_sin_nombre_52-8" x1="272.12" y1="115.12" x2="322.74" y2="115.12" xlink:href="#Degradado_sin_nombre_52"/></defs><g id="Capa_2" data-name="Capa 2"><g id="Imagenes"><path class="cls-1" d="M122.73,50.71H92.83L88.15,61.88H75.63L101.48,0H114l25.85,61.88H127.42Zm-4-9.73-10.9-26L96.88,41Z"/><path class="cls-2" d="M190.47,51.61V61.88h-43V0h11.17V51.61Z"/><path class="cls-3" d="M197.77,53.32l34.14-43H198.4V0h48.82V8.56L213.17,51.61h34.5V61.88h-49.9Z"/><path class="cls-4" d="M30.89,112H57.28v25c-5.94,6.21-15.58,10.09-24.59,10.09C15,147.14,0,132.46,0,115.07s15-32,32.69-32c9,0,18.65,3.78,24.59,10l-8,7.47c-3.87-4.5-10.54-7.21-16.58-7.21-11.52,0-21.25,9.91-21.25,21.71s9.73,21.8,21.25,21.8a24,24,0,0,0,13.6-4.41V121.2H30.89Z"/><path class="cls-5" d="M111.69,134.89H81.79L77.1,146.06H64.58L90.43,84.18H103l25.85,61.88H116.37Zm-4-9.73-10.9-26-10.9,26Z"/><path class="cls-6" d="M137.82,84.18h11.25l20.36,37.74,20.44-37.74H201v61.88H189.87V104.71l-20.44,37.74-20.36-37.74v41.35H137.82Z"/><path class="cls-7" d="M226,94.45v15h32v10.27H226v16.12h35.31v10.27H214.74V84.18h46.57V94.45Z"/><path class="cls-8" d="M310,146.06l-14.59-20.81h-12v20.81H272.12V84.18h26.93c13.24,0,23.15,8.47,23.15,20.53,0,9.37-6,16.58-15,19.37l15.5,22Zm-26.57-31.17h14.41c7.65,0,13-3.87,13-10.18s-5.32-10.17-13-10.17H283.38Z"/></g></g></svg>