<svg xmlns="http://www.w3.org/2000/svg" viewBox="0 0 214.41 157.32"><defs><style>.cls-1{fill:#ded743;}.cls-2{fill:#1e1f21;}.cls-3{fill:#ddd643;}</style></defs><g id="Capa_2" data-name="Capa 2"><g id="Imagenes"><path class="cls-1" d="M107.15,157.31q-43.17,0-86.35,0C7.33,157.3.08,150.24.05,136.87q-.09-47,0-94c0-13.07,7.35-20.23,20.36-20.26,7.47,0,14.95-.21,22.41,0,6.43.23,11.31-1.91,14.61-7.55,1.19-2,2.82-3.81,4.07-5.81C65.55,2.8,71.55,0,79,0c18.76,0,37.53,0,56.29,0,7.68,0,13.74,2.94,18,9.48,1.48,2.29,3.18,4.44,4.66,6.72,3,4.54,7.1,6.49,12.46,6.42,8.38-.11,16.76-.08,25.14,0,11.15.09,18.74,7.18,18.8,18.32q.27,49.19,0,98.38c-.06,10.79-7.72,17.94-18.56,18C166.18,157.35,136.67,157.31,107.15,157.31Z"/><path class="cls-2" d="M111.16,150.31c-33.25,0-60.38-.09-87.51.05-9.41,0-16.62-2.44-16.38-16.26.53-30,.16-60.09.17-90.13,0-10,4.09-14.22,14.21-14.36,8-.11,16-.14,24,0,7.16.13,13.26-2.31,16.52-8.61C68,9.8,76.7,6.45,89,7.28c15.23,1,30.58.38,45.87.18,5.48-.06,9.43,2,12.34,6.48,1.67,2.6,3.51,5.09,5.3,7.61,3.86,5.42,9,8.2,15.79,8.07,8.19-.14,16.39-.16,24.58,0C203,29.84,207.29,34,207.33,44q.16,46.16,0,92.32c0,9-3.92,13.07-12.76,13.46C164.74,151.09,134.89,149.82,111.16,150.31Z"/><path class="cls-1" d="M107.15,136.72a45.2,45.2,0,0,1-45-40.07c-.44-3.64.31-5.62,4.4-6.25C76.78,88.82,86.93,86.82,97.11,85c14.36-2.59,28.13,1.52,42.07,3.68,1.61.25,3.21.59,4.81.93,9.64,2.06,9.79,2.31,7.51,12.15A45.12,45.12,0,0,1,107.15,136.72Z"/><path class="cls-3" d="M136.62,59.15c4.43,1.83,7.78,3.7,11.36,4.59,5.57,1.39,6.76,4.67,5.17,10.14-8.75-3.61-17.44-7.22-26.14-10.79-2-.81-1.73-2.48-1.85-4.12-.16-2.14.7-3.3,2.7-4.1,6.91-2.76,13.74-5.75,20.68-8.48,1.54-.6,3.92-3.14,4.83-.49.86,2.47,1.65,6.15-2.77,7.6S141.91,57,136.62,59.15Z"/><path class="cls-3" d="M61.34,74c-1.3-5.43-.53-8.91,5.22-10.22,3.64-.83,7-2.78,11.34-4.58-4.18-1.73-7.54-3.59-11.14-4.52-5.34-1.37-7.11-4.32-5.25-10.17,8.86,3.67,17.84,7.2,26.63,11.13,2.66,1.19,1.68,6.37-1.37,7.69C78.46,66.86,70.1,70.29,61.34,74Z"/><path class="cls-1" d="M183.05,48c-2.06-1-6.76,2.44-6.53-3.73.09-2.35.9-3.23,3.2-3.09,2,.12,4,.08,6,0,2.48-.1,4.45-.24,4.44,3.46S187.94,48,185.58,48Z"/></g></g></svg>