<svg xmlns="http://www.w3.org/2000/svg" viewBox="0 0 315.92 114.78"><defs><style>.cls-1{fill:#461e7d;}.cls-2{fill:#461e7c;}</style></defs><g id="Capa_2" data-name="Capa 2"><g id="Imagenes"><path class="cls-1" d="M255.41,76.45c-6.95,0-13.9,0-20.85,0-1.62,0-2.15-.54-2.1-2.11.08-2.79.12-5.59,0-8.37-.09-2,.47-2.72,2.62-2.69,9.06.12,18.12,0,27.18,0,2.76,0,2.79,0,1.83-2.72-4.57-12.83-17.48-21.4-30.82-20.44a30.75,30.75,0,1,0,24.49,51.33c1.48-1.67,2.34-1.56,3.84-.27,2.12,1.82,4.36,3.5,6.65,5.1,1.35,1,1.33,1.65.3,2.87a43.84,43.84,0,1,1,9.41-37.52c.92,4.42.26,9,.34,13.45,0,1.5-1.1,1.28-2,1.29Z"/><path class="cls-1" d="M64.2,76.45c-6.88,0-13.76,0-20.64,0-1.64,0-2.33-.43-2.26-2.17.11-2.92.11-5.86,0-8.78-.06-1.73.59-2.21,2.25-2.2,9.19.06,18.39,0,27.58,0,2.7,0,2.72,0,1.83-2.59A30.8,30.8,0,0,0,13.13,72.43a30.64,30.64,0,0,0,27,29c10.55,1.19,19.46-2.27,26.6-10.09,1.29-1.41,2.06-1.41,3.42-.26,2.18,1.84,4.46,3.59,6.81,5.22,1.41,1,1.46,1.66.34,3A43.8,43.8,0,1,1,86.5,60.35c1.21,4.91.44,9.9.6,14.86.05,1.52-1.17,1.23-2.06,1.23C78.09,76.46,71.14,76.45,64.2,76.45Z"/><path class="cls-1" d="M113.3,38.44A4.45,4.45,0,0,0,115.56,37c13.16-11.18,31.88-13.16,45.88-4.52,11,6.79,17,16.85,17.27,29.78.32,16.34.07,32.69.12,49,0,1.75-.67,2.22-2.28,2.17-2.86-.08-5.73-.12-8.58,0-1.83.09-2.3-.55-2.29-2.33.06-15.8,0-31.6,0-47.4a22.94,22.94,0,0,0-4.51-14.14C154,39.85,140.3,37.22,129,43.51c-8.4,4.7-13.28,12.09-15.51,21.32a22.16,22.16,0,0,0-.2,3.66c-.17,2.56,1.1,5.89-.55,7.47s-4.93.36-7.5.48c-1.09.06-2.18,0-3.27,0-1.34.09-1.78-.49-1.78-1.79q0-21.15,0-42.3c0-1.16.34-1.76,1.63-1.74,3.26.06,6.54.06,9.8,0,1.26,0,1.7.5,1.67,1.7C113.27,34.3,113.3,36.27,113.3,38.44Z"/><path class="cls-2" d="M291.38,45.36V2.66c0-2.63,0-2.64,2.7-2.64,2.86,0,5.72.05,8.58,0,1.29,0,1.92.39,1.83,1.74-.05.74,0,1.49,0,2.24,0,26.36.18,52.71-.1,79.06-.1,8.64,3,15,10.18,19.56,1.58,1,1.77,1.8.61,3.3-1.92,2.48-3.64,5.1-5.39,7.7-.59.86-1.06,1-2,.36-10.51-7-16.68-16.29-16.49-29.38S291.38,58.43,291.38,45.36Z"/></g></g></svg>