<svg xmlns="http://www.w3.org/2000/svg" xmlns:xlink="http://www.w3.org/1999/xlink" viewBox="0 0 323.81 250.82"><defs><style>.cls-1{fill:#ea6837;stroke:url(#Degradado_sin_nombre_81);}.cls-1,.cls-2{stroke-miterlimit:10;stroke-width:3px;}.cls-2{fill:#b84b1c;stroke:url(#Degradado_sin_nombre_72);}.cls-3{fill:#641f0f;}.cls-4{fill:url(#Degradado_sin_nombre_19);}.cls-5{fill:url(#Degradado_sin_nombre_19-2);}.cls-6{fill:url(#Degradado_sin_nombre_68);}.cls-7{fill:url(#Degradado_sin_nombre_68-2);}.cls-8{fill:url(#Degradado_sin_nombre_68-3);}.cls-9{fill:url(#Degradado_sin_nombre_68-4);}.cls-10{fill:url(#Degradado_sin_nombre_68-5);}.cls-11{fill:url(#Degradado_sin_nombre_68-6);}.cls-12{fill:url(#Degradado_sin_nombre_68-7);}.cls-13{fill:url(#Degradado_sin_nombre_68-8);}.cls-14{fill:url(#Degradado_sin_nombre_68-9);}.cls-15{fill:url(#Degradado_sin_nombre_68-10);}.cls-16{fill:url(#Degradado_sin_nombre_68-11);}.cls-17{fill:url(#Degradado_sin_nombre_68-12);}.cls-18{fill:url(#Degradado_sin_nombre_68-13);}.cls-19{fill:url(#Degradado_sin_nombre_68-14);}.cls-20{fill:url(#Degradado_sin_nombre_68-15);}.cls-21{fill:url(#Degradado_sin_nombre_19-3);}.cls-22{fill:url(#Degradado_sin_nombre_68-16);}.cls-23{fill:url(#Degradado_sin_nombre_68-17);}.cls-24{fill:url(#Degradado_sin_nombre_68-18);}.cls-25{fill:url(#Degradado_sin_nombre_68-19);}.cls-26{fill:url(#Degradado_sin_nombre_68-20);}.cls-27{fill:url(#Degradado_sin_nombre_68-21);}.cls-28{fill:url(#Degradado_sin_nombre_68-22);}.cls-29{fill:url(#Degradado_sin_nombre_68-23);}.cls-30{fill:url(#Degradado_sin_nombre_68-24);}.cls-31{fill:url(#Degradado_sin_nombre_68-25);}.cls-32{fill:url(#Degradado_sin_nombre_68-26);}.cls-33{fill:url(#Degradado_sin_nombre_19-4);}.cls-34{fill:url(#Degradado_sin_nombre_19-5);}.cls-35{fill:url(#Degradado_sin_nombre_68-27);}.cls-36{fill:url(#Degradado_sin_nombre_68-28);}.cls-37{fill:url(#Degradado_sin_nombre_68-29);}.cls-38{fill:url(#Degradado_sin_nombre_19-6);}.cls-39{fill:url(#Degradado_sin_nombre_68-30);}.cls-40{fill:url(#Degradado_sin_nombre_68-31);}.cls-41{fill:url(#Degradado_sin_nombre_68-32);}.cls-42{fill:url(#Degradado_sin_nombre_68-33);}.cls-43{fill:url(#Degradado_sin_nombre_68-34);}.cls-44{fill:url(#Degradado_sin_nombre_19-7);}</style><linearGradient id="Degradado_sin_nombre_81" y1="127.12" x2="323.81" y2="127.12" gradientUnits="userSpaceOnUse"><stop offset="0" stop-color="#ea6837"/><stop offset="1" stop-color="#ea6837"/></linearGradient><linearGradient id="Degradado_sin_nombre_72" y1="123.7" x2="323.81" y2="123.7" gradientUnits="userSpaceOnUse"><stop offset="0.18" stop-color="#fcb83d"/><stop offset="1" stop-color="#fcb83d"/></linearGradient><linearGradient id="Degradado_sin_nombre_19" x1="211.03" y1="102.98" x2="179.65" y2="134.36" gradientUnits="userSpaceOnUse"><stop offset="0" stop-color="#fcb83d"/><stop offset="1" stop-color="#ea6837"/></linearGradient><linearGradient id="Degradado_sin_nombre_19-2" x1="263.94" y1="110.77" x2="222.69" y2="152.02" xlink:href="#Degradado_sin_nombre_19"/><linearGradient id="Degradado_sin_nombre_68" x1="232.89" y1="87.82" x2="236.76" y2="91.69" gradientUnits="userSpaceOnUse"><stop offset="0"/><stop offset="1"/></linearGradient><linearGradient id="Degradado_sin_nombre_68-2" x1="-481.53" y1="-2280.29" x2="-476.69" y2="-2275.44" gradientTransform="matrix(0.82, -0.57, -0.57, -0.82, -632.6, -2012.35)" xlink:href="#Degradado_sin_nombre_68"/><linearGradient id="Degradado_sin_nombre_68-3" x1="-541.67" y1="-3481.67" x2="-536.83" y2="-3476.82" gradientTransform="matrix(0.73, -0.12, -0.13, -0.79, 182.16, -2698.59)" xlink:href="#Degradado_sin_nombre_68"/><linearGradient id="Degradado_sin_nombre_68-4" x1="239.53" y1="78.41" x2="243.4" y2="82.28" xlink:href="#Degradado_sin_nombre_68"/><linearGradient id="Degradado_sin_nombre_68-5" x1="1260.47" y1="444.17" x2="1264.3" y2="448" gradientTransform="translate(-693.52 -874.07) rotate(25.67)" xlink:href="#Degradado_sin_nombre_68"/><linearGradient id="Degradado_sin_nombre_68-6" x1="1586.45" y1="470.56" x2="1587.61" y2="473.87" gradientTransform="translate(-1346.71 -378.73)" xlink:href="#Degradado_sin_nombre_68"/><linearGradient id="Degradado_sin_nombre_68-7" x1="1588.96" y1="471.9" x2="1590.16" y2="475.31" gradientTransform="translate(-1608.38 -375.12) scale(1.17 1)" xlink:href="#Degradado_sin_nombre_68"/><linearGradient id="Degradado_sin_nombre_68-8" x1="120.1" y1="-1150.83" x2="121.3" y2="-1147.41" gradientTransform="translate(92.55 1469.71) scale(1.39 1.18)" xlink:href="#Degradado_sin_nombre_68"/><linearGradient id="Degradado_sin_nombre_68-9" x1="323.61" y1="-3179.77" x2="324.86" y2="-3176.19" gradientTransform="translate(-181.02 2997.08) scale(1.39 0.9)" xlink:href="#Degradado_sin_nombre_68"/><linearGradient id="Degradado_sin_nombre_68-10" x1="1587.04" y1="462.05" x2="1588.2" y2="465.36" gradientTransform="translate(-1341.96 -376.86)" xlink:href="#Degradado_sin_nombre_68"/><linearGradient id="Degradado_sin_nombre_68-11" x1="2008.95" y1="-47.12" x2="2010.13" y2="-43.77" gradientTransform="translate(-1759.38 148.19) scale(1 1.25)" xlink:href="#Degradado_sin_nombre_68"/><linearGradient id="Degradado_sin_nombre_68-12" x1="1584.36" y1="285.89" x2="1585.52" y2="289.21" gradientTransform="translate(-1480.37 -228.38) scale(1.09 1.07)" xlink:href="#Degradado_sin_nombre_68"/><linearGradient id="Degradado_sin_nombre_68-13" x1="1975.64" y1="26.92" x2="1976.8" y2="30.24" gradientTransform="translate(-1904.81 52.29) scale(1.09 1.2)" xlink:href="#Degradado_sin_nombre_68"/><linearGradient id="Degradado_sin_nombre_68-14" x1="263.56" y1="88.84" x2="258.38" y2="111.97" xlink:href="#Degradado_sin_nombre_68"/><linearGradient id="Degradado_sin_nombre_68-15" x1="277.95" y1="94.97" x2="272.12" y2="120.98" xlink:href="#Degradado_sin_nombre_68"/><linearGradient id="Degradado_sin_nombre_19-3" x1="304.52" y1="103.06" x2="268.2" y2="139.38" xlink:href="#Degradado_sin_nombre_19"/><linearGradient id="Degradado_sin_nombre_68-16" x1="635.6" y1="217.86" x2="638.51" y2="220.77" gradientTransform="matrix(0.95, 0.31, -0.31, 0.95, -388.3, -321.16)" xlink:href="#Degradado_sin_nombre_68"/><linearGradient id="Degradado_sin_nombre_68-17" x1="643.89" y1="213.93" x2="647.24" y2="217.28" gradientTransform="matrix(0.95, 0.31, -0.31, 0.95, -388.3, -321.16)" xlink:href="#Degradado_sin_nombre_68"/><linearGradient id="Degradado_sin_nombre_68-18" x1="652.62" y1="211.02" x2="655.97" y2="214.37" gradientTransform="matrix(0.95, 0.31, -0.31, 0.95, -388.3, -321.16)" xlink:href="#Degradado_sin_nombre_68"/><linearGradient id="Degradado_sin_nombre_68-19" x1="2516.09" y1="422.09" x2="2519.43" y2="425.43" gradientTransform="matrix(-0.86, -0.51, -0.51, 0.86, 2557.81, 1005.92)" xlink:href="#Degradado_sin_nombre_68"/><linearGradient id="Degradado_sin_nombre_68-20" x1="2507.85" y1="427.95" x2="2510.5" y2="430.61" gradientTransform="matrix(-0.86, -0.51, -0.51, 0.86, 2557.81, 1005.92)" xlink:href="#Degradado_sin_nombre_68"/><linearGradient id="Degradado_sin_nombre_68-21" x1="640.03" y1="227.72" x2="633.57" y2="231.8" gradientTransform="matrix(0.95, 0.31, -0.31, 0.95, -388.3, -321.16)" xlink:href="#Degradado_sin_nombre_68"/><linearGradient id="Degradado_sin_nombre_68-22" x1="647.39" y1="223.4" x2="641.45" y2="227.15" gradientTransform="matrix(0.95, 0.31, -0.31, 0.95, -388.3, -321.16)" xlink:href="#Degradado_sin_nombre_68"/><linearGradient id="Degradado_sin_nombre_68-23" x1="656.73" y1="220.92" x2="650.31" y2="224.97" gradientTransform="matrix(0.95, 0.31, -0.31, 0.95, -388.3, -321.16)" xlink:href="#Degradado_sin_nombre_68"/><linearGradient id="Degradado_sin_nombre_68-24" x1="664.01" y1="223.37" x2="657.97" y2="227.18" gradientTransform="matrix(0.95, 0.31, -0.31, 0.95, -388.3, -321.16)" xlink:href="#Degradado_sin_nombre_68"/><linearGradient id="Degradado_sin_nombre_68-25" x1="670.61" y1="229.53" x2="665.72" y2="232.6" gradientTransform="matrix(0.95, 0.31, -0.31, 0.95, -388.3, -321.16)" xlink:href="#Degradado_sin_nombre_68"/><linearGradient id="Degradado_sin_nombre_68-26" x1="664.38" y1="235.9" x2="637.87" y2="252.6" gradientTransform="matrix(0.95, 0.31, -0.31, 0.95, -388.3, -321.16)" xlink:href="#Degradado_sin_nombre_68"/><linearGradient id="Degradado_sin_nombre_19-4" x1="173.32" y1="113.22" x2="141.94" y2="144.61" xlink:href="#Degradado_sin_nombre_19"/><linearGradient id="Degradado_sin_nombre_19-5" x1="142.71" y1="98.32" x2="98.37" y2="142.66" xlink:href="#Degradado_sin_nombre_19"/><linearGradient id="Degradado_sin_nombre_68-27" x1="-645.43" y1="-399.39" x2="-633.39" y2="-399.39" gradientTransform="matrix(0.83, -0.56, 0.56, 0.83, 862.59, 135.02)" xlink:href="#Degradado_sin_nombre_68"/><linearGradient id="Degradado_sin_nombre_68-28" x1="4007.81" y1="-409.1" x2="4019.85" y2="-409.1" gradientTransform="matrix(-0.83, 0.56, 0.56, 0.83, 3684.47, -1748.53)" xlink:href="#Degradado_sin_nombre_68"/><linearGradient id="Degradado_sin_nombre_68-29" x1="-552.62" y1="-418.8" x2="-540.58" y2="-418.8" gradientTransform="matrix(0.83, -0.56, 0.56, 0.83, 786.07, 186.09)" xlink:href="#Degradado_sin_nombre_68"/><linearGradient id="Degradado_sin_nombre_19-6" x1="99.56" y1="91.92" x2="58.09" y2="133.39" xlink:href="#Degradado_sin_nombre_19"/><linearGradient id="Degradado_sin_nombre_68-30" x1="1229.22" y1="20.35" x2="1238.8" y2="20.35" gradientTransform="translate(-811.89 -747.81) rotate(45)" xlink:href="#Degradado_sin_nombre_68"/><linearGradient id="Degradado_sin_nombre_68-31" x1="1237.62" y1="10.17" x2="1246.37" y2="10.17" gradientTransform="translate(-811.89 -747.81) rotate(45)" xlink:href="#Degradado_sin_nombre_68"/><linearGradient id="Degradado_sin_nombre_68-32" x1="1247.72" y1="10.57" x2="1256.46" y2="10.57" gradientTransform="translate(-811.89 -747.81) rotate(45)" xlink:href="#Degradado_sin_nombre_68"/><linearGradient id="Degradado_sin_nombre_68-33" x1="1254.81" y1="20.73" x2="1264.42" y2="20.73" gradientTransform="translate(-811.89 -747.81) rotate(45)" xlink:href="#Degradado_sin_nombre_68"/><linearGradient id="Degradado_sin_nombre_68-34" x1="1232.83" y1="33.82" x2="1260.85" y2="33.82" gradientTransform="translate(-811.89 -747.81) rotate(45)" xlink:href="#Degradado_sin_nombre_68"/><linearGradient id="Degradado_sin_nombre_19-7" x1="58.64" y1="98.34" x2="14.03" y2="142.96" xlink:href="#Degradado_sin_nombre_19"/></defs><g id="Capa_2" data-name="Capa 2"><g id="Imagenes"><polygon class="cls-1" points="321.58 189.11 161.18 249.21 1.51 187.22 2.23 65.12 162.63 5.02 322.3 67.01 321.58 189.11"/><polygon class="cls-2" points="321.58 185.69 161.18 245.79 1.51 183.8 2.23 61.71 162.63 1.6 322.3 63.6 321.58 185.69"/><path class="cls-3" d="M194.7,129.4l24.81.26.83,11.87-37.09-.36.25-53.25,10.69.36Z"/><path class="cls-3" d="M235.54,141.43l-3.68,11.76-11.74-.52,16.94-53.58,13.11.07,15.89,53.22-11.52.62L251,140.36Zm3.69-11.77,8.66-.37-4-14.42Z"/><path class="cls-4" d="M194.72,126.45l24.82.25.84,11.64L183.26,138l.25-52.19,10.7.36Z"/><path class="cls-5" d="M235.59,138.47,231.9,150l-11.74-.51,17-52.51,13.12.07,15.9,52.15-11.53.62-3.54-12.4Zm3.69-11.53,8.67-.36-4-14.13Z"/><path class="cls-6" d="M232.29,88.42l3.5,4.24s1.66-2.22.74-3.14S232.29,88.42,232.29,88.42Z"/><path class="cls-7" d="M266.49,137.46l.84-6.81s1.9.93,1.66,2.21S266.49,137.46,266.49,137.46Z"/><path class="cls-8" d="M251,126.11l2.66-4.62s1,1.33.45,2.18A15.74,15.74,0,0,1,251,126.11Z"/><path class="cls-9" d="M238.93,79l3.5,4.24s1.66-2.21.74-3.13S238.93,79,238.93,79Z"/><path class="cls-10" d="M249.32,72.58l1.3,5.29s2.43-1.26,2-2.48S249.32,72.58,249.32,72.58Z"/><rect class="cls-11" x="238.56" y="91.74" width="3.5" height="3.5" rx="1.75" transform="translate(96.62 -120.62) rotate(34.88)"/><rect class="cls-12" x="243.01" y="96.73" width="4.09" height="3.5" rx="1.75" transform="translate(100.33 -122.43) rotate(34.88)"/><rect class="cls-13" x="257.32" y="115.65" width="4.85" height="4.12" rx="2.06" transform="translate(-22.04 161.56) rotate(-33.22)"/><rect class="cls-14" x="265.69" y="124.77" width="4.85" height="3.17" rx="1.58" transform="translate(123.14 384.87) rotate(-85.95)"/><rect class="cls-15" x="243.91" y="85.1" width="3.5" height="3.5" rx="1.75" transform="translate(93.78 -124.87) rotate(34.88)"/><rect class="cls-16" x="248.4" y="89.09" width="3.5" height="4.39" rx="1.75" transform="translate(137.81 -150.15) rotate(45)"/><rect class="cls-17" x="251.7" y="78.68" width="3.83" height="3.76" rx="1.88" transform="translate(91.62 -130.55) rotate(34.88)"/><rect class="cls-18" x="255.33" y="84.38" width="3.83" height="4.19" rx="1.92" transform="translate(136.49 -156.57) rotate(45)"/><path class="cls-19" d="M253.13,95.61l.55,15.31,6.09-10.15S271,99.67,271,95.06,266,84.91,253.13,95.61Z"/><path class="cls-20" d="M271.76,93.58l.55,17.7s-8.67,6.09-5.72,8.12,11.81,1.47,14.57-8.48Z"/><path class="cls-3" d="M266.21,124.23l-.62-17.15,20.59-11.76,19.75,11.58.11,8.7-10.76.48,0-2.4-9.17-5-9.54,5.76,29.84,8.44v18.4L286,151.41l-20.41-11.58.15-10.7,10.79.67,0,2.8L286,138l9.46-4.68v-2.4Z"/><path class="cls-21" d="M266.27,121.55l-.61-16.8,20.6-11.53L306,104.57l.11,8.53-10.77.47,0-2.35-9.18-4.88L276.61,112l29.85,8.27v18l-20.38,9.9-20.42-11.35.14-10.48,10.81.65,0,2.75L286,135l9.47-4.59V128.1Z"/><path class="cls-22" d="M153.41,79.32l-5.73,6.41s2.66-.67,2.85-.3Z"/><path class="cls-23" d="M162.69,78l-6.28,6.23s2.93-.58,3.5.52Z"/><path class="cls-24" d="M171.89,77.94l-6.28,6.23s2.94-.58,3.5.52Z"/><path class="cls-25" d="M176.79,82.82l-.5,8.84s-1.51-2.59-2.7-2.28Z"/><path class="cls-26" d="M181.11,92.92l-.4,7s-1.19-2-2.14-1.81Z"/><path class="cls-27" d="M148.34,87.47s-6.93,6.33-3.21,10S153.5,88.53,148.34,87.47Z"/><path class="cls-28" d="M156.7,86.19s-6.48,5-2.77,8.59S161.86,87.25,156.7,86.19Z"/><path class="cls-29" d="M166.05,86.17s-6.88,5.86-2.81,9.76S171.67,87.34,166.05,86.17Z"/><path class="cls-30" d="M172.51,91.3s-6.64,5.25-2.78,8.61S177.71,92.45,172.51,91.3Z"/><path class="cls-31" d="M177.55,99.65s-5.24,4.78-2.43,7.53S181.45,100.45,177.55,99.65Z"/><path class="cls-32" d="M160.42,99.32c-6-1.14-21.34.76-19.08,15.56L156,113.17s14.24,7,14.61,6.84S178.52,102.71,160.42,99.32Z"/><path class="cls-3" d="M157,139.65l24.81.26.83,11.87-37.09-.37.25-53.25,10.7.37Z"/><path class="cls-33" d="M157,136.7l24.82.25.83,11.64-37.11-.36L145.8,96l10.7.36Z"/><path class="cls-3" d="M102.82,150.26,102.56,97l36.37-.36.62,11.87-25.54.26-.11,8.88,24.67,0-.43,12.17H113.76l-.11,8.7,25.57-.66-.61,11.32Z"/><path class="cls-34" d="M102.78,147.07l-.25-52.19,36.39-.36.61,11.64-25.55.25-.11,8.71,24.69,0-.44,11.92H113.73l-.11,8.53,25.59-.65-.62,11.1Z"/><path class="cls-35" d="M108.38,150.66s-4.86,9.72-1.41,14.88c2.69,4,3.93-10,6.19-9.65C116.38,156.34,109.8,147.45,108.38,150.66Z"/><path class="cls-36" d="M112.56,136.21s10.83-.75,14.27,4.4c2.7,4-10.7-.19-11.28,2C114.73,145.78,109,136.29,112.56,136.21Z"/><path class="cls-37" d="M98.28,134.08S93.42,143.8,96.87,149c2.69,4,3.93-10,6.19-9.64C106.28,139.75,99.7,130.86,98.28,134.08Z"/><path class="cls-3" d="M69.08,93.83l.18,35.81L78.44,135,88,129.53V94.27l11-.92v43.26L78.33,148.37,58.57,136.79l-.28-42.41Z"/><path class="cls-38" d="M69,91.7l.19,35.09L78.38,132l9.55-5.34V92.14l10.95-.91v42.39l-20.6,11.53L58.51,133.8l-.29-41.56Z"/><path class="cls-39" d="M50.09,131.19l-6.74,4.15s-5.16,4.31-2.58,10c0,0,4,4.88,7.6-2.44,2.72-5.59.43-8.46.43-8.46Z"/><path class="cls-40" d="M65.86,130.47l-3.3,1.86a12.64,12.64,0,0,0-8.46,4.16c-4.3,4.3-3.58,14.48,7.17,5.16a11.66,11.66,0,0,0,3.16-7.45Z"/><path class="cls-41" d="M73.32,138.52l-1.95,3.25A12.61,12.61,0,0,1,67,150.12c-4.41,4.19-14.57,3.21-5-7.3a11.66,11.66,0,0,1,7.54-3Z"/><path class="cls-42" d="M73.18,154.91l-3,3.38s-8.46,7.59-12.33,4.58c-1.57-1.22-3.15-5.44,3.47-7.76,5.89-2,8.44.65,8.44.65Z"/><path class="cls-43" d="M53,150.54l-10,.29S32.5,145.6,31,155c-.86,5.45,8.32,5.73,8.32,5.73l2.86,2.87s1.52,12.89,10.47,7c4.16-2.73-.43-11-.43-11Z"/><path class="cls-3" d="M29.18,129.91l-.26,20-10.69.36L18,97l11.63-.18-.29,21.46,14.12-.59V97.46L55,96.72l-.83,53.62-10.69-.41v-21Z"/><path class="cls-44" d="M29.09,127.12l-.25,19.59-10.7.36-.25-52.19,11.63-.18-.28,21,14.13-.58V95.32l11.52-.73-.83,52.55-10.69-.4v-20.6Z"/></g></g></svg>