<svg xmlns="http://www.w3.org/2000/svg" viewBox="0 0 231.86 199.05"><defs><style>.cls-1{fill:#7bd98e;}.cls-2{fill:#60a8a1;}</style></defs><title>w2p</title><g id="Capa_2" data-name="Capa 2"><g id="elementos_UI" data-name="elementos UI"><path class="cls-1" d="M89.7,80.14,114.35,0H90.28L71.6,56.16a.73.73,0,0,1-1.41-.24L69.21,0H48.15L35.81,35.14Z"/><path class="cls-1" d="M32.87,43.52l-3.45,9.84A.73.73,0,0,1,28,53.11l-.24-14L9.55,23.62s-2.66-4-3.12-7.53a27.94,27.94,0,0,1,8.16,1.33l13,10.84L27.08,0H0L2.1,120.37H29.18L47.91,67a.73.73,0,0,1,1.41.25l.93,53.11H77.33l9.48-30.81Z"/><path class="cls-1" d="M214.81,78.28l-48.59.62-1.76,11.64,34.22-7.41s4.76.36,7.83,2.18A26.68,26.68,0,0,1,200.63,91l-37.56,8.76-15,99.31h24.81l5.69-38.14h30.11A16.4,16.4,0,0,0,225,146.7l6.7-49.11A17.1,17.1,0,0,0,214.81,78.28Zm-11.14,63.56h-21l5.58-44.49h21Z"/><ellipse class="cls-2" cx="113.93" cy="106.38" rx="7.36" ry="7.49" transform="translate(-41.83 112.4) rotate(-45.25)"/><path class="cls-2" d="M114.87,118.71c-.24,0-.48,0-.73,0A12.56,12.56,0,0,1,104,113.6l-8.77,2.05a.9.9,0,0,1-1.07-.68l-.8-3.74-1.07-4a.87.87,0,0,1,.66-1.08l8.73-1.89a12.06,12.06,0,0,1,3-6.31c-18.18,7.77-28.87,17.66-28.39,44.91l.15,8.56h84l-.36-21H104.66C105.33,124.82,108.67,121.74,114.87,118.71Z"/><path class="cls-2" d="M117.94,64.59h.3c10.37,0,15.71,4.21,15.84,11.88.2,11.53-6.83,13.11-19.27,17.6A12.6,12.6,0,0,1,124,99.45l32.7-7.07c1.68-4.67,2.53-10.67,2.39-18.62C158.79,54.38,144.78,44,118.63,44h-1.95c-27.2,0-41,11.57-40.52,37.41h25.55C101.51,70.45,107,64.59,117.94,64.59Z"/><path class="cls-2" d="M126.16,108.44a12.06,12.06,0,0,1-3.66,7l6.2-2.45c8.31-3.23,15.38-5.65,20.62-9.94Z"/></g></g></svg>